<svg width="60" height="60" viewBox="0 0 60 60" fill="none" xmlns="http://www.w3.org/2000/svg">
<path opacity="0.1" d="M28.9137 10.6035L9.10715 21.6072C8.40665 21.9963 8.40665 23.0037 9.10715 23.3928L28.9137 34.3965C29.5892 34.7718 30.4107 34.7718 31.0862 34.3965L51.4265 23.0963C51.8945 22.8364 51.8945 22.1636 51.4265 21.9037L31.0862 10.6035C30.4107 10.2282 29.5892 10.2282 28.9137 10.6035Z" fill="#323232"/>
<path d="M28.9137 10.6035L9.10715 21.6072C8.40665 21.9963 8.40665 23.0037 9.10715 23.3928L28.9137 34.3965C29.5892 34.7718 30.4107 34.7718 31.0862 34.3965L51.4265 23.0963C51.8945 22.8364 51.8945 22.1636 51.4265 21.9037L31.0862 10.6035C30.4107 10.2282 29.5892 10.2282 28.9137 10.6035Z" stroke="#323232" stroke-width="5" stroke-linecap="round" stroke-linejoin="round"/>
<path d="M13.75 26.25L12.8287 38.2265C12.6396 40.6855 14.2734 42.9098 16.6511 43.565C18.2089 43.994 19.9219 44.5042 21.25 45C23.1617 45.7135 25.2815 46.9142 26.956 47.9602C28.8068 49.1162 31.1933 49.1163 33.0443 47.96C34.7185 46.9143 36.8385 45.7135 38.75 45C40.078 44.5042 41.7913 43.994 43.349 43.5647C45.7268 42.9097 47.3605 40.6855 47.1715 38.2265L46.25 26.25" stroke="#323232" stroke-width="5" stroke-linecap="round" stroke-linejoin="round"/>
<path d="M28.75 26.25L22.5193 29.8105C20.9614 30.7005 20 32.3572 20 34.1515V50" stroke="#323232" stroke-width="5" stroke-linecap="round" stroke-linejoin="round"/>
</svg>
