<svg width="60" height="61" viewBox="0 0 60 61" fill="none" xmlns="http://www.w3.org/2000/svg">
<path d="M38.75 22.7301L39.179 23.159C42.5123 26.4924 44.179 28.1591 44.179 30.2301C44.179 32.3011 42.5123 33.9678 39.179 37.3011L38.75 37.7301" stroke="#1C274C" stroke-width="3.75" stroke-linecap="round"/>
<path d="M33.2355 18.1561L30.0003 30.2301L26.765 42.3044" stroke="#1C274C" stroke-width="3.75" stroke-linecap="round"/>
<path d="M21.2498 22.7301L20.8209 23.159C17.4876 26.4924 15.8209 28.1591 15.8209 30.2301C15.8209 32.3011 17.4876 33.9678 20.8209 37.3011L21.2498 37.7301" stroke="#1C274C" stroke-width="3.75" stroke-linecap="round"/>
<path d="M55 30.2301C55 42.0151 55 47.9078 51.3387 51.5688C47.6777 55.2301 41.785 55.2301 30 55.2301C18.2149 55.2301 12.3223 55.2301 8.66117 51.5688C5 47.9078 5 42.0151 5 30.2301C5 18.445 5 12.5524 8.66117 8.89128C12.3223 5.2301 18.2149 5.2301 30 5.2301C41.785 5.2301 47.6777 5.2301 51.3387 8.89128C53.7732 11.3256 54.589 14.7465 54.8623 20.2301" stroke="#1C274C" stroke-width="3.75" stroke-linecap="round"/>
</svg>
